<?xml version="1.0" encoding="UTF-8"?>
<svg width="61px" height="60px" viewBox="0 0 61 60" version="1.1" xmlns="http://www.w3.org/2000/svg" xmlns:xlink="http://www.w3.org/1999/xlink">
    <title>561DA6A5-1453-43CA-B25A-E4CCA37CB4EC</title>
    <defs>
        <filter id="filter-1">
            <feColorMatrix in="SourceGraphic" type="matrix" values="0 0 0 0 1.000000 0 0 0 0 0.643137 0 0 0 0 0.105882 0 0 0 1.000000 0"></feColorMatrix>
        </filter>
    </defs>
    <g id="Page-1" stroke="none" stroke-width="1" fill="none" fill-rule="evenodd">
        <g id="404---Mobile" transform="translate(-157.000000, -85.000000)">
            <g id="Group-6" transform="translate(157.500000, 85.000000)">
                <rect id="Rectangle" fill-opacity="0.03" fill="#213743" x="0" y="0" width="60" height="60" rx="15"></rect>
                <g filter="url(#filter-1)" id="Group">
                    <g transform="translate(12.500000, 19.500000)">
                        <path d="M26.2965845,22.4638989 L8.71918332,22.4638989 C7.90768912,22.4638989 7.25,23.1434637 7.25,23.9819494 C7.25,24.8204352 7.90768912,25.5 8.71918332,25.5 L26.2965845,25.5 C27.1076961,25.5 27.7657678,24.8204352 27.7657678,23.9819494 C27.7657678,23.1434637 27.1076961,22.4638989 26.2965845,22.4638989 Z" id="Path" fill="#213743" fill-rule="nonzero"></path>
                        <path d="M8.51590683,-1.22568622e-13 C9.32740113,-1.22568622e-13 9.98509015,0.679564752 9.98509015,1.51805057 L9.98509015,1.51805057 L9.98509015,15.0061671 C9.98509015,15.8442575 9.32740113,16.5242176 8.51590683,16.5242176 C7.7047952,16.5242176 7.04672351,15.8442575 7.04672351,15.0061671 L7.04672351,15.0061671 L7.04672351,10.3172093 L4.51735614,10.3172093 C2.02624867,10.3172093 1.41220369e-13,8.22356455 1.41220369e-13,5.64959918 L1.41220369e-13,5.64959918 L1.41220369e-13,1.51805057 C1.41220369e-13,0.679564752 0.657689122,-1.22568622e-13 1.46918332,-1.22568622e-13 C2.28067753,-1.22568622e-13 2.93836665,0.679564752 2.93836665,1.51805057 L2.93836665,1.51805057 L2.93836665,5.64959918 C2.93836665,6.54936031 3.64655894,7.28110815 4.51735614,7.28110815 L4.51735614,7.28110815 L7.04672351,7.28110815 L7.04672351,1.51805057 C7.04672351,0.679564752 7.7047952,-1.22568622e-13 8.51590683,-1.22568622e-13 Z M16.6629875,-1.27897692e-13 C19.0768098,-1.27897692e-13 21.0403121,2.02881134 21.0403121,4.52292097 L21.0403121,4.52292097 L21.0403121,12.0012967 C21.0403121,14.4954064 19.0768098,16.5242176 16.6629875,16.5242176 C14.2491653,16.5242176 12.285663,14.4954064 12.285663,12.0012967 L12.285663,12.0012967 L12.285663,4.52292097 C12.285663,2.02881134 14.2491653,-1.27897692e-13 16.6629875,-1.27897692e-13 Z M31.5308167,-1.22568622e-13 C32.3423109,-1.22568622e-13 33,0.679564752 33,1.51805057 L33,1.51805057 L33,15.0061671 C33,15.8446529 32.3423109,16.5242176 31.5308167,16.5242176 C30.7193225,16.5242176 30.0616334,15.8446529 30.0616334,15.0061671 L30.0616334,15.0061671 L30.0616334,10.3172093 L27.5318833,10.3172093 C25.0411584,10.3172093 23.0149098,8.22356455 23.0149098,5.64959918 L23.0149098,5.64959918 L23.0149098,1.51805057 C23.0149098,0.679564752 23.6725989,-1.22568622e-13 24.4840931,-1.22568622e-13 C25.2952047,-1.22568622e-13 25.9532764,0.679564752 25.9532764,1.51805057 L25.9532764,1.51805057 L25.9532764,5.64959918 C25.9532764,6.54936031 26.6614687,7.28110815 27.5318833,7.28110815 L27.5318833,7.28110815 L30.0616334,7.28110815 L30.0616334,1.51805057 C30.0616334,0.679564752 30.7193225,-1.22568622e-13 31.5308167,-1.22568622e-13 Z M16.6629875,3.03610115 C15.8694755,3.03610115 15.2240296,3.70301548 15.2240296,4.52292097 L15.2240296,4.52292097 L15.2240296,12.0012967 C15.2240296,12.8212021 15.8694755,13.4881165 16.6629875,13.4881165 C17.4564995,13.4881165 18.1019454,12.8212021 18.1019454,12.0012967 L18.1019454,12.0012967 L18.1019454,4.52292097 C18.1019454,3.70301548 17.4564995,3.03610115 16.6629875,3.03610115 Z" id="Combined-Shape" fill="#213743" fill-rule="nonzero"></path>
                    </g>
                </g>
            </g>
        </g>
    </g>
</svg>