<svg xmlns="http://www.w3.org/2000/svg" width="300" height="300" viewBox="0 0 300 300">
    <g fill="none" fill-rule="evenodd">
        <g>
            <g>
                <path d="M0 0H300V300H0z" transform="translate(-630 -310) translate(630 310)"/>
                <g fill-rule="nonzero" transform="translate(-630 -310) translate(630 310) translate(60 34.5)">
                    <path fill="orange" d="M89.46 31.967c-.293 0-.574-.115-.783-.322L73.301 16.323l-.02-.02c-1.714-1.784-2.671-4.164-2.669-6.64 0-5.327 4.38-9.663 9.764-9.663 2.346-.004 4.616.834 6.398 2.36.039.028.076.058.111.09l2.575 2.402 2.577-2.399c.035-.033.073-.063.112-.092C93.931.835 96.2-.002 98.546.001c5.384 0 9.764 4.336 9.764 9.664.001 2.475-.955 4.855-2.67 6.64l-.02.02-15.375 15.32c-.209.207-.491.323-.785.322zM74.884 14.753l14.576 14.53 14.577-14.53c1.314-1.371 2.046-3.197 2.045-5.096 0-4.104-3.383-7.443-7.543-7.443-1.842.002-3.62.675-5.003 1.892l-.058.048-3.254 3.032c-.427.397-1.088.397-1.515 0l-3.26-3.028c-.02-.015-.04-.03-.058-.047-1.387-1.218-3.17-1.888-5.015-1.886-4.165 0-7.543 3.34-7.543 7.443 0 1.897.732 3.722 2.045 5.092l.006-.007z"/>
                    <ellipse cx="92.113" cy="225.823" fill="#C9C9C9" rx="40.313" ry="4.889"/>
                    <path fill="#C9C9C9" d="M5.273 52.724C4.956 55.06 2.343 78.251 9.397 98c7.055 19.748 17.54 30.52 19.282 31.733-.658.669-7.525 6.579-10.244 14.79.536-3.758.43-3.441.43-3.441s-5.293-9.024-6.541-11.855C6.314 115.573 2.7 103.594 1.357 88.741.308 73.83 4.933 53.085 5.273 52.724z"/>
                    <path fill="#00243D" d="M34.314 210.047c-.143 0-.282-.044-.399-.126-6.125-4.291-10.5-9.412-13.002-15.22-2.006-4.656-2.818-9.75-2.413-15.144.694-9.15 4.592-15.894 4.758-16.177.194-.33.619-.442.95-.248.33.194.442.62.248.95-.05.085-3.925 6.803-4.582 15.63-.86 11.677 4.026 21.387 14.534 28.864 4.165-1.465 22.58-5.831 23.386-6.017.37-.08.736.15.823.519.087.368-.137.738-.503.832-.203.047-20.321 4.814-23.553 6.089-.079.03-.163.047-.247.048z"/>
                    <path fill="#00243D" d="M31.61 192.827c-.288 0-.546-.177-.649-.447-4.76-12.494-3.46-21.585-1.342-29.554.106-.36.48-.57.843-.473.364.096.584.464.498.83-2.056 7.743-3.323 16.58 1.299 28.703.136.358-.043.759-.401.896-.079.03-.163.045-.247.045z"/>
                    <path fill="#00243D" d="M26.067 164.64c-2.736 0-5.285-1.21-7.163-3.526-2.143-2.637-3.155-6.355-2.85-10.459.343-4.603 2.325-9.42 5.735-13.93.23-.306.665-.368.972-.138.306.23.368.665.138.972-3.247 4.295-5.136 8.858-5.457 13.196-.277 3.748.625 7.115 2.543 9.48 2.5 3.074 6.216 3.858 9.954 2.098.227-.134.51-.128.73.015.222.143.343.399.314.66-.03.262-.205.484-.452.575-1.392.677-2.916 1.038-4.464 1.056z"/>
                    <path fill="#00243D" d="M19.126 142.876c-.23 0-.446-.115-.575-.306-.077-.115-7.833-11.685-13.248-28.784C2.12 103.738.353 93.768.047 84.151c-.381-12.036 1.54-23.547 5.712-34.213.092-.236.304-.403.555-.436 9.765-1.284 20.081-.92 30.662 1.08 8.456 1.6 17.098 4.241 25.683 7.852 14.622 6.147 24.168 13.083 24.264 13.152.309.227.376.661.15.97-.227.31-.662.377-.97.15-.094-.069-9.534-6.923-24.018-13.007C48.842 54.135 28.538 48.09 6.91 50.826c-9.098 23.623-5.19 47.008-.29 62.5 5.351 16.92 13.011 28.353 13.088 28.46.144.212.158.487.038.714-.12.227-.356.368-.613.369l-.007.007z"/>
                    <path fill="#00243D" d="M147.103 210.566c-5.751 0-15.41-4.632-15.838-4.84-.224-.109-.372-.327-.39-.575-.018-.247.097-.485.302-.625.206-.139.47-.158.693-.05.107.052 10.69 5.137 15.91 4.674 11.969-5.83 17.907-17.573 17.67-34.925-.185-13.076-4.01-24.557-4.048-24.67-.074-.22-.034-.462.107-.646.141-.184.365-.285.597-.27 5.565.368 9.103-.724 10.513-3.245 2.515-4.495-1.158-13.755-10.916-27.525-.181-.255-.17-.6.03-.843 15.567-18.93 19.665-40.771 12.524-66.759C148.03 44 123.26 47.997 98.544 62.484c-.192.112-.425.125-.628.037-9.398-4.1-16.455-2.972-21.576 3.451-.241.292-.671.336-.967.1-.296-.235-.349-.664-.119-.965 5.508-6.909 12.998-8.218 22.893-4 12.871-7.496 26.043-12.25 39.148-14.129 12.226-1.75 24.905-1.066 37.68 2.035.244.06.438.247.505.49 3.818 13.697 4.543 26.538 2.153 38.168-1.142 5.554-2.998 10.937-5.522 16.014-2.473 4.92-5.479 9.552-8.964 13.813 10.004 14.202 13.5 23.552 10.69 28.573-1.497 2.674-4.772 4.026-9.746 4.026-.347 0-.702-.006-1.065-.02.925 3.07 3.662 13.042 3.818 24.13.11 7.84-1.07 14.707-3.508 20.407-3.068 7.173-8.135 12.503-15.06 15.841-.072.035-.15.057-.229.066-.314.031-.629.045-.944.045z"/>
                    <path fill="#00243D" d="M99.122 213.28c-.96 0-1.925-.018-2.897-.052-14.946-.525-30.819-5.034-45.92-13.041-.229-.111-.378-.338-.391-.592-.012-.253.115-.493.332-.626.217-.132.489-.135.708-.008 31.007 16.445 63.511 17.263 84.83 2.133.203-.15.47-.18.7-.076.23.103.385.322.407.573.022.25-.094.494-.303.635-10.223 7.253-23.126 11.053-37.466 11.053zM34.56 200.013c-.277 0-.526-.164-.637-.416l-1.428-3.223c-.115-.23-.094-.503.055-.713.148-.209.4-.32.655-.286.254.033.47.204.56.444l1.429 3.222c.093.215.073.462-.055.657-.128.196-.346.314-.58.315z"/>
                    <ellipse cx="124.513" cy="124.441" fill="#C9C9C9" rx="7.427" ry="4.512"/>
                    <ellipse cx="64.472" cy="124.254" fill="#C9C9C9" rx="7.427" ry="4.512"/>
                    <path fill="#00243D" d="M95.063 130.055c-.166 0-.333 0-.502-.007-8.7-.234-13.675-6.386-14.584-7.612-.147-.2-.177-.462-.078-.69.1-.227.313-.384.56-.412.246-.028.488.078.636.278.841 1.138 5.447 6.831 13.503 7.048 7.966.212 12.86-5.121 13.762-6.193.247-.294.685-.332.979-.085.293.247.331.685.084.979-.95 1.134-6.053 6.694-14.36 6.694zM83.033 112.819c-.168 0-.33-.061-.456-.171l-5.436-4.72-5.435 4.612c-.293.248-.73.212-.979-.08-.248-.293-.212-.732.08-.98l6.344-5.382 6.337 5.506c.22.19.297.496.196.768-.102.271-.361.451-.651.45v-.003zM112.291 115.356c-.383 0-.694-.31-.694-.694v-10.874c0-.383.311-.694.694-.694.384 0 .694.31.694.694v10.874c0 .384-.31.694-.694.694z"/>
                    <path fill="#00243D" d="M117.728 109.917h-10.874c-.384 0-.695-.31-.695-.694 0-.383.311-.694.695-.694h10.874c.383 0 .694.31.694.694 0 .383-.31.694-.694.694z"/>
                </g>
            </g>
        </g>
    </g>
</svg>
