<svg xmlns="http://www.w3.org/2000/svg" width="200" height="200" viewBox="0 0 200 200">
    <g fill="none" fill-rule="evenodd">
        <g>
            <g>
                <path d="M0 0H200V200H0z" transform="translate(-88 -287) translate(88 287)"/>
                <g fill-rule="nonzero" transform="translate(-88 -287) translate(88 287) translate(11 11)">
                    <path fill="#C9C9C9" d="M145.766 84.102c.21 1.557 1.954 17.018-2.75 30.183-4.705 13.165-11.693 20.347-12.854 21.155.439.446 5.016 4.386 6.83 9.86-.358-2.505-.834-3.794-.289-3.034.38-.133 2.326-5.368 3.16-7.255 4.006-9.102 7.433-18.847 8.329-28.75.697-9.94-2.2-21.918-2.426-22.16z"/>
                    <path fill="#00243D" d="M135.59 165.328c-.223 0-.414-.158-.455-.376-.853-4.422-2.635-7.53-2.654-7.56-.115-.22-.036-.491.179-.615.214-.124.489-.057.622.152.076.132 1.878 3.265 2.761 7.851.024.121-.002.247-.072.348-.07.102-.176.172-.298.195-.028.004-.056.006-.084.005zM129.77 168.764h-.043c-.122-.012-.235-.071-.313-.166-.079-.094-.117-.216-.105-.338.317-3.455-.03-6.849-1.13-11.013-.042-.16.005-.33.122-.447.117-.116.288-.161.448-.118.16.044.283.169.326.329 1.127 4.268 1.48 7.762 1.155 11.33-.02.238-.22.422-.46.423z"/>
                    <path fill="#00243D" d="M131.424 157.758c-1.027-.01-2.039-.25-2.961-.702-.213-.12-.296-.383-.191-.603.105-.22.363-.32.59-.23 2.446 1.167 4.887.665 6.532-1.34 2.388-2.914 2.81-8.92-1.909-15.223-.153-.204-.111-.494.093-.648.204-.153.494-.111.648.093 2.272 3.035 3.589 6.274 3.81 9.367.196 2.757-.488 5.242-1.927 6.997-1.233 1.504-2.9 2.29-4.685 2.29z"/>
                    <path fill="#00243D" d="M135.986 143.217c-.17 0-.328-.094-.408-.245-.08-.15-.072-.333.023-.475.051-.075 5.106-7.713 8.63-19.02 3.227-10.356 5.79-25.99-.253-41.795-14.307-1.851-27.729 2.168-36.492 5.878-9.573 4.054-15.81 8.628-15.872 8.673-.13.116-.316.148-.478.083-.162-.065-.274-.215-.29-.39-.014-.174.07-.341.218-.433.062-.046 6.37-4.675 16.038-8.771 5.68-2.406 11.394-4.165 16.986-5.225 6.999-1.328 13.823-1.56 20.285-.693.167.022.309.134.37.29 2.77 7.136 4.052 14.834 3.811 22.88-.192 6.43-1.352 13.094-3.447 19.806-3.565 11.428-8.684 19.158-8.735 19.232-.086.129-.231.206-.386.205z"/>
                    <path fill="#00243D" d="M38.813 163.03h-.02c-.255-.01-.454-.226-.443-.481.285-6.806 1.894-12.745 2.463-14.655-3.674.127-6.075-.768-7.144-2.666-1.886-3.353.413-9.607 7.033-19.116-2.312-2.856-4.306-5.956-5.944-9.246-1.678-3.399-2.914-6.999-3.676-10.712-1.592-7.775-1.125-16.362 1.388-25.516.045-.163.174-.288.337-.328 8.449-2.061 16.835-2.507 24.926-1.324 8.674 1.269 17.391 4.459 25.914 9.485 6.542-2.812 11.499-1.928 15.15 2.697.102.13.128.304.067.458-.061.154-.2.263-.364.287-.163.024-.327-.041-.43-.171-3.393-4.298-8.06-5.06-14.268-2.329-.137.06-.294.05-.423-.026-16.36-9.708-32.746-12.401-50.086-8.242-4.699 17.371-1.966 31.98 8.35 44.654.13.16.139.386.021.555-6.456 9.218-8.874 15.415-7.184 18.418.942 1.674 3.278 2.406 6.942 2.162.153-.01.302.057.396.179.094.122.122.283.073.429-.023.068-2.275 6.928-2.615 15.044-.01.249-.215.444-.463.444z"/>
                    <path fill="orange" d="M89.455 178.91c-12.076 0-23.785-2.366-34.818-7.034-21.443-9.091-38.512-26.16-47.603-47.603C2.369 113.245 0 101.53 0 89.455s2.366-23.791 7.034-34.82c9.091-21.441 26.16-38.51 47.603-47.601C65.665 2.369 77.379 0 89.455 0c12.076 0 23.785 2.366 34.818 7.034 21.442 9.091 38.511 26.16 47.603 47.602 4.664 11.028 7.034 22.743 7.034 34.819 0 12.076-2.366 23.785-7.034 34.818-9.091 21.442-26.16 38.512-47.603 47.603-11.028 4.668-22.742 7.034-34.818 7.034zm0-177.418c-48.507 0-87.97 39.463-87.97 87.97s39.463 87.967 87.97 87.967 87.97-39.463 87.97-87.97c0-48.508-39.463-87.97-87.97-87.97v.003z"/>
                    <circle cx="67.225" cy="127.495" r="2.778" fill="#02263E"/>
                    <path fill="#02263E" d="M67.225 140.877c-4.702 0-8.514-3.812-8.514-8.514 0-4.703 3.812-8.515 8.514-8.515 4.703 0 8.515 3.812 8.515 8.515-.004 4.7-3.814 8.51-8.515 8.514zm0-16.103c-4.191 0-7.589 3.397-7.589 7.589 0 4.191 3.398 7.589 7.59 7.589 4.19 0 7.588-3.398 7.588-7.59-.006-4.187-3.4-7.58-7.589-7.584v-.004z"/>
                    <circle cx="68.506" cy="128.391" r="1" fill="#FFF"/>
                    <path fill="#02263E" d="M102.108 140.513c-4.702 0-8.514-3.812-8.514-8.515 0-4.702 3.812-8.514 8.514-8.514 4.703 0 8.515 3.812 8.515 8.514-.004 4.7-3.814 8.51-8.515 8.515zm0-16.104c-4.191 0-7.589 3.398-7.589 7.59 0 4.19 3.398 7.588 7.59 7.588 4.19 0 7.588-3.398 7.588-7.589-.005-4.188-3.4-7.581-7.589-7.584v-.005z"/>
                    <circle cx="102.108" cy="127.13" r="2.778" fill="#02263E"/>
                    <circle cx="103.606" cy="128.391" r="1" fill="#FFF"/>
                    <path fill="#00243D" d="M140.237 59.436H38.673c-3.178-.003-5.753-2.578-5.757-5.756v-7.812c.004-3.178 2.579-5.753 5.757-5.757h101.564c3.178.004 5.753 2.579 5.757 5.757v7.812c-.004 3.178-2.58 5.753-5.757 5.756zm-101.564-18.4c-2.667.004-4.828 2.165-4.831 4.832v7.812c.003 2.667 2.164 4.828 4.83 4.83h101.565c2.667-.002 4.828-2.163 4.831-4.83v-7.812c-.003-2.667-2.164-4.828-4.831-4.831H38.673z"/>
                    <rect width="88.01" height="12.354" x="36.914" y="43.761" fill="#C9C9C9" opacity=".4" rx="6.177"/>
                    <path fill="#00243D" d="M139.062 55.998c-.118 0-.232-.045-.318-.126l-6.676-6.293c-.126-.112-.182-.284-.144-.448.037-.165.16-.296.323-.343.162-.046.336-.001.455.118l6.677 6.293c.09.085.142.2.145.324.004.122-.041.241-.126.33-.087.093-.21.145-.336.145z"/>
                    <path fill="#FFF" d="M137.458 49.087c0 2.804-2.273 5.076-5.076 5.076-2.803 0-5.075-2.272-5.075-5.076 0-2.803 2.272-5.075 5.075-5.075 1.348-.004 2.64.53 3.593 1.482.953.953 1.487 2.246 1.483 3.593z"/>
                    <path fill="#00243D" d="M132.382 54.627c-2.65 0-4.929-1.876-5.437-4.477-.508-2.6.897-5.197 3.352-6.195 2.455-.997 5.273-.115 6.722 2.103 1.449 2.22 1.123 5.153-.777 7-1.034 1.005-2.418 1.568-3.86 1.569zm0-10.152c-2.547 0-4.612 2.065-4.612 4.612 0 2.548 2.065 4.613 4.612 4.613 2.548 0 4.613-2.065 4.613-4.613-.003-2.546-2.067-4.61-4.613-4.612zM90.01 148.633c-.17 0-.325-.092-.406-.24-1.578-2.884-4.949-4.151-8.197-3.084-.242.076-.5-.057-.579-.297-.079-.241.05-.5.29-.583 3.679-1.208 7.502.238 9.298 3.517.122.225.039.506-.186.628-.067.038-.143.058-.22.059z"/>
                </g>
            </g>
        </g>
    </g>
</svg>
