<?xml version="1.0" encoding="UTF-8"?>
<svg width="290px" height="290px" viewBox="0 0 290 290" version="1.1" xmlns="http://www.w3.org/2000/svg" xmlns:xlink="http://www.w3.org/1999/xlink">
    <title>Profile</title>
    <g id="Profile" stroke="none" stroke-width="1" fill="none" fill-rule="evenodd">
        <rect fill="#F7F7F7" x="0" y="0" width="290" height="290"></rect>
        <g id="Group" transform="translate(24.000000, 66.000000)">
            <path d="M236.325379,4.6443257 C222.77026,-1.71981144 161.517314,-5.54557682 131.011869,20.8984733 C116.503522,14.4850682 106.954103,17.4539992 100.230095,25.7717187 C80.8806337,15.0398685 44.6172619,-0.717315251 5.14076125,4.28445527 C-11.5075302,78.2249756 21.4805923,109.567976 21.4805923,109.567976 C8.72232884,124.219844 3.96475611,154.780983 29.4063101,148.654617 C9.76552466,195.836201 38.0280062,226.952883 38.0280062,226.952883 C38.0280062,226.952883 57.4290775,232.787925 73.5525579,224.399517 C97.4153946,234.227407 148.913281,235.731151 173.757193,226.327394 L173.999249,226.952883 C173.999249,226.952883 190.679451,233.74973 198.14462,233 C234.937087,214.653034 217.766347,148.294747 217.766347,148.294747 C239.401415,149.826338 240.086882,135.613598 218.387552,104.596195 C232.407504,93.7572403 250.266074,46.1001137 236.325379,4.6443257 Z" id="Combined-Shape" fill="#D7D7D7"></path>
            <path d="M3.42945857,12.6598798 C3.07251509,65.0553523 23.1069465,89.1920127 30.5645839,98.6866217 C30.7986552,98.9885422 30.9138102,99.3813737 30.8844122,99.7776611 C30.8550142,100.173948 30.6835036,100.540797 30.4080633,100.796535 C28.1385135,102.876909 22.9198852,107.641093 20.1006043,111.35876 C20.1693207,110.706797 18.7472731,108.126373 18.640381,107.491289 C16.4148242,105.007466 14.5201511,102.186398 13.0132719,99.1128242 C5.61862449,84.1767492 2.63059308,71.0833657 0.446938811,54.7547481 C-1.40267743,38.3565033 3.06297114,13.0628732 3.42945857,12.6598798 Z" id="Path" fill="#ADADAD" fill-rule="nonzero"></path>
        </g>
    </g>
</svg>